<svg xmlns="http://www.w3.org/2000/svg" width="26.69" height="46.953" viewBox="0 0 26.69 46.953">
  <g id="Group_8562" data-name="Group 8562" transform="translate(0 0)">
    <g id="Group_8560" data-name="Group 8560" transform="translate(0.303)">
      <path id="Path_1" data-name="Path 1" d="M540.514-373.094l-7.947-7.532-7.666,7.457s-3.891,3.321-4.978,7.269c1.852.882,8.637,4.577,8.637,11.332,0,3.711.075,10.68.09,11.644h4.123c-.108-.7-1.4-9.03-2.575-13.514a38.372,38.372,0,0,0-3.893-9s1.112,1.072,1.192.793a2.078,2.078,0,0,1,.239-.517l.077,1.151s1.512,3.331,4.611,3.369,4.686-3.17,4.686-3.17l.039-1.19a4.506,4.506,0,0,1,.32.359c.157.2,1.11-.718,1.11-.718s-1.705,2.541-3.177,8.607c-1.4,5.793-2.513,13.17-2.612,13.83h3.987c.01-.968.084-7.933.084-11.644,0-6.894,7.068-10.6,8.744-11.385C544.745-369.185,540.514-373.094,540.514-373.094Zm-7.955,11.3c-.557,0-1.01-.658-1.01-1.466s.449-1.471,1.01-1.471,1.016.66,1.016,1.471-.455,1.466-1.016,1.466Z" transform="translate(-519.639 380.626)" fill="#032973"/>
      <path id="Path_2" data-name="Path 2" d="M539.751-341.046H547.8v-21.247c-1.446.642-8.049,3.985-8.049,11.548Z" transform="translate(-521.672 378.746)" fill="#032973"/>
      <path id="Path_3" data-name="Path 3" d="M519.606-362.073v21.028h8.064v-9.7c0-7.564-6.6-10.908-8.048-11.548C519.62-362.219,519.606-362.147,519.606-362.073Z" transform="translate(-519.606 378.746)" fill="#032973"/>
    </g>
    <g id="Group_8561" data-name="Group 8561" transform="translate(0 39.215)">
      <path id="Path_4" data-name="Path 4" d="M526.471-331.907l-.293,2.715h-6.91v-.212h.259a1.075,1.075,0,0,0,.546-.119.521.521,0,0,0,.23-.269,2.33,2.33,0,0,0,.063-.718V-335.6a2.515,2.515,0,0,0-.063-.741.573.573,0,0,0-.256-.259,1.032,1.032,0,0,0-.52-.111h-.259v-.212h4.151v.212h-.338a1.077,1.077,0,0,0-.546.119.545.545,0,0,0-.236.274,2.355,2.355,0,0,0-.063.718v4.928a2.465,2.465,0,0,0,.069.756.454.454,0,0,0,.269.242,2.735,2.735,0,0,0,.695.051h.649a2.2,2.2,0,0,0,1.034-.217,1.915,1.915,0,0,0,.718-.683,5.492,5.492,0,0,0,.571-1.38Z" transform="translate(-519.268 336.929)" fill="#a92579"/>
      <path id="Path_5" data-name="Path 5" d="M532.093-329.4v.212h-4.07v-.212h.259a1.072,1.072,0,0,0,.545-.119.519.519,0,0,0,.23-.274,2.327,2.327,0,0,0,.063-.718V-335.6a2.511,2.511,0,0,0-.063-.741.573.573,0,0,0-.256-.259,1.035,1.035,0,0,0-.518-.111h-.259v-.212h4.069v.212h-.259a1.077,1.077,0,0,0-.546.119.548.548,0,0,0-.235.274,2.327,2.327,0,0,0-.063.718v5.089a2.428,2.428,0,0,0,.065.741.585.585,0,0,0,.259.259,1.04,1.04,0,0,0,.519.111Z" transform="translate(-520.166 336.93)" fill="#a92579"/>
      <path id="Path_6" data-name="Path 6" d="M536.122-336.481v3.177h.224a1.986,1.986,0,0,0,.844-.154,1.319,1.319,0,0,0,.554-.519,2.364,2.364,0,0,0,.3-.987h.2v3.883h-.2a1.976,1.976,0,0,0-.594-1.451,1.83,1.83,0,0,0-1.1-.351h-.223v2.367a2.426,2.426,0,0,0,.066.741.584.584,0,0,0,.259.259,1.035,1.035,0,0,0,.518.111h.259v.212h-4.07v-.212h.259a1.075,1.075,0,0,0,.546-.119.516.516,0,0,0,.23-.269,2.327,2.327,0,0,0,.063-.718V-335.6a2.511,2.511,0,0,0-.063-.741.573.573,0,0,0-.256-.259,1.035,1.035,0,0,0-.518-.111h-.259v-.212h6.568v2.219h-.236a2.053,2.053,0,0,0-.41-1.158,1.8,1.8,0,0,0-.956-.53,6.246,6.246,0,0,0-1.274-.09Z" transform="translate(-520.692 336.929)" fill="#a92579"/>
      <path id="Path_7" data-name="Path 7" d="M544.09-336.482v3.15h.155a1.235,1.235,0,0,0,1.077-.462,2.828,2.828,0,0,0,.424-1.363h.218v4.049h-.221a3.02,3.02,0,0,0-.29-1.084,1.241,1.241,0,0,0-.514-.567,1.954,1.954,0,0,0-.85-.145v2.175a3.13,3.13,0,0,0,.055.782.466.466,0,0,0,.2.233.958.958,0,0,0,.482.09h.465a2.507,2.507,0,0,0,2.692-2.03h.212l-.35,2.458h-6.731v-.212h.259a1.075,1.075,0,0,0,.546-.119.519.519,0,0,0,.23-.274,2.327,2.327,0,0,0,.063-.718v-5.087a4.073,4.073,0,0,0-.029-.644.546.546,0,0,0-.212-.308.989.989,0,0,0-.6-.16h-.259v-.212h6.516v2.287h-.218a2.772,2.772,0,0,0-.468-1.2,1.745,1.745,0,0,0-.853-.538,4.646,4.646,0,0,0-1.205-.1Z" transform="translate(-521.509 336.93)" fill="#a92579"/>
    </g>
  </g>
</svg>
