<svg xmlns="http://www.w3.org/2000/svg" width="369.639" height="52.694" viewBox="0 0 369.639 52.694">
  <g id="Group_8563" data-name="Group 8563" transform="translate(963.5 -2878)">
    <g id="Lifepharmacy.com" transform="translate(-1482.768 3258.626)" style="isolation: isolate">
      <g id="Group_8553" data-name="Group 8553" style="isolation: isolate">
        <path id="Path_7531" data-name="Path 7531" d="M557.917-339.785a5.9,5.9,0,0,0,3.138-.934,3.611,3.611,0,0,0,.822-2.777v-24.329a6.347,6.347,0,0,0-.275-2.267,2.007,2.007,0,0,0-2.016-1.045,4.32,4.32,0,0,0-.76.074c-.274.05-.619.125-1.033.225v-.822q3.361-.9,8.093-2.391a.191.191,0,0,1,.211.15,3.372,3.372,0,0,1,.038.647V-343.4q0,2.168.747,2.8a5.8,5.8,0,0,0,3.088.81v.7H557.917Z" fill="#032973"/>
        <path id="Path_7532" data-name="Path 7532" d="M572.037-339.785q2.664-.249,3.361-.909t.7-3.574v-11.878a7.569,7.569,0,0,0-.224-2.241,1.507,1.507,0,0,0-1.569-1.021,2.8,2.8,0,0,0-.536.05q-.26.049-1.506.4v-.772l1.071-.348q4.356-1.421,6.076-2.143a3.218,3.218,0,0,1,.9-.3,1.368,1.368,0,0,1,.049.374v17.879q0,2.84.685,3.561t3.1.922v.7h-12.1Zm3.959-33.3a2.47,2.47,0,0,1,1.843-.769,2.5,2.5,0,0,1,1.831.756,2.506,2.506,0,0,1,.759,1.847,2.477,2.477,0,0,1-.759,1.821,2.5,2.5,0,0,1-1.831.756,2.488,2.488,0,0,1-1.843-.756,2.5,2.5,0,0,1-.747-1.821A2.538,2.538,0,0,1,576-373.083Z" fill="#032973"/>
        <path id="Path_7533" data-name="Path 7533" d="M586.206-339.785q2.64-.125,3.474-.984t.834-3.624v-15.986h-4.258v-1.669h4.258a18.152,18.152,0,0,1,1.073-6.649,7.483,7.483,0,0,1,7.509-5.2,8.626,8.626,0,0,1,3.928.872,2.627,2.627,0,0,1,1.735,2.34,2.114,2.114,0,0,1-.595,1.469,1.882,1.882,0,0,1-1.438.648,1.871,1.871,0,0,1-1.239-.436,7.233,7.233,0,0,1-1.238-1.531l-.422-.649a3.675,3.675,0,0,0-.817-.883,2.113,2.113,0,0,0-1.313-.361,2.526,2.526,0,0,0-2.553,1.868,7.622,7.622,0,0,0-.372,2.615v5.9h6.2v1.669h-6.2v15.986q0,2.816.76,3.6t3.972,1.009v.7h-13.3Z" fill="#032973"/>
        <path id="Path_7534" data-name="Path 7534" d="M620.023-360.019a8.89,8.89,0,0,1,2.64,6.886H606.85q.248,5.764,2.615,8.4a7.3,7.3,0,0,0,5.6,2.632,7.056,7.056,0,0,0,4.407-1.366,13.722,13.722,0,0,0,3.313-3.876l.871.3a14.191,14.191,0,0,1-3.822,5.861,9.527,9.527,0,0,1-6.861,2.694,8.393,8.393,0,0,1-7.234-3.536,13.554,13.554,0,0,1-2.553-8.144,13.251,13.251,0,0,1,2.964-8.641,9.49,9.49,0,0,1,7.72-3.635A8.8,8.8,0,0,1,620.023-360.019ZM608.1-358.113a9.841,9.841,0,0,0-1.146,3.386h10.509a10.385,10.385,0,0,0-.946-3.711,4.3,4.3,0,0,0-4.084-2.191A4.759,4.759,0,0,0,608.1-358.113Z" fill="#032973"/>
        <path id="Path_7535" data-name="Path 7535" d="M625.079-328.8q2.325-.148,2.955-1a4.5,4.5,0,0,0,.631-2.665V-356.37a4.154,4.154,0,0,0-.461-2.428,2.223,2.223,0,0,0-1.731-.536,5.026,5.026,0,0,0-.51.025q-.237.025-.685.1v-.822l2.365-.772q.125-.024,5.006-1.718a.2.2,0,0,1,.187.112.537.537,0,0,1,.062.262v3.36a18.213,18.213,0,0,1,2.889-2.44,8.626,8.626,0,0,1,4.606-1.394,7.521,7.521,0,0,1,5.915,2.924q2.478,2.922,2.478,8a14.9,14.9,0,0,1-2.976,9.03,8.961,8.961,0,0,1-7.483,4.055,7.5,7.5,0,0,1-2.416-.348,7.208,7.208,0,0,1-2.939-1.917v8.167q0,2.516.823,3.088a8.256,8.256,0,0,0,3.586.771v.873h-12.3Zm9.824-12.363a5.424,5.424,0,0,0,3.026.833,5.542,5.542,0,0,0,4.594-2.674q1.905-2.673,1.9-7.448,0-4.577-1.98-6.839a5.956,5.956,0,0,0-4.595-2.264,5.491,5.491,0,0,0-3.361,1.132,3.025,3.025,0,0,0-1.52,2.226v12.51A5.047,5.047,0,0,0,634.9-341.166Z" fill="#032973"/>
        <path id="Path_7536" data-name="Path 7536" d="M650.778-339.785a4.362,4.362,0,0,0,2.677-1.009q.636-.733.635-3.474v-23.906a4.458,4.458,0,0,0-.361-2.055q-.362-.658-1.756-.66a3.755,3.755,0,0,0-.535.038l-.586.087v-.9q1.1-.324,2.7-.784t2.228-.66l2.391-.748.049.174v15.291a16.322,16.322,0,0,1,2.79-2.64,8.235,8.235,0,0,1,4.731-1.494,5.465,5.465,0,0,1,5.5,3.386,11.725,11.725,0,0,1,.8,4.707v10.16a6.333,6.333,0,0,0,.61,3.437,3.69,3.69,0,0,0,2.5,1.046v.7H664.375v-.7a4.638,4.638,0,0,0,2.789-1.022q.621-.72.622-3.461v-10.086a8.2,8.2,0,0,0-.809-3.909,3.151,3.151,0,0,0-3.05-1.494,6.111,6.111,0,0,0-3.761,1.395q-1.818,1.393-1.818,1.817v12.277q0,2.79.648,3.487a4.836,4.836,0,0,0,2.764,1v.7H650.778Z" fill="#032973"/>
        <path id="Path_7537" data-name="Path 7537" d="M681.308-350.07a54.534,54.534,0,0,1,9.139-4.059v-2.117a8.714,8.714,0,0,0-.5-3.535q-.846-1.67-3.511-1.669a4.848,4.848,0,0,0-2.416.647,2.059,2.059,0,0,0-1.145,1.843,6.662,6.662,0,0,0,.125,1.009,7.1,7.1,0,0,1,.124.908,2.072,2.072,0,0,1-.921,1.943,2.318,2.318,0,0,1-1.245.324,2.088,2.088,0,0,1-1.719-.735,2.526,2.526,0,0,1-.6-1.632q0-1.741,2.155-3.647t6.312-1.9q4.832,0,6.55,3.137a10.855,10.855,0,0,1,.921,5.005v9.987a6.676,6.676,0,0,0,.2,1.992,1.3,1.3,0,0,0,1.345.97,2.243,2.243,0,0,0,.946-.173,9.776,9.776,0,0,0,1.3-.847v1.295a8.117,8.117,0,0,1-1.718,1.594,5.009,5.009,0,0,1-2.839.946,2.771,2.771,0,0,1-2.453-1.1,4.906,4.906,0,0,1-.834-2.615,23.4,23.4,0,0,1-3.237,2.441,8.479,8.479,0,0,1-4.309,1.344,5.175,5.175,0,0,1-3.71-1.506,5.077,5.077,0,0,1-1.569-3.822Q677.7-347.654,681.308-350.07Zm9.139-2.814a22.788,22.788,0,0,0-4.731,2.092q-3.586,2.217-3.586,5.03a3.827,3.827,0,0,0,1.494,3.337,3.627,3.627,0,0,0,2.167.7,5.951,5.951,0,0,0,3.15-.92,2.7,2.7,0,0,0,1.506-2.342Z" fill="#032973"/>
        <path id="Path_7538" data-name="Path 7538" d="M698.69-339.91a6.015,6.015,0,0,0,3.038-.809,3.34,3.34,0,0,0,.747-2.6v-11.232a9.619,9.619,0,0,0-.461-3.523,1.68,1.68,0,0,0-1.68-1.059,4.711,4.711,0,0,0-.66.063c-.275.042-.561.1-.86.162v-.822l2.9-1.021q1.489-.523,2.06-.747,1.241-.473,2.557-1.07c.116,0,.185.041.211.124a2.331,2.331,0,0,1,.037.522v4.084a19.054,19.054,0,0,1,3.084-3.461,4.756,4.756,0,0,1,3.084-1.245,2.88,2.88,0,0,1,2.072.76,2.519,2.519,0,0,1,.8,1.9,2.515,2.515,0,0,1-.611,1.718,1.949,1.949,0,0,1-1.531.7,2.858,2.858,0,0,1-1.9-.872,2.7,2.7,0,0,0-1.507-.871q-.871,0-2.141,1.407a4.317,4.317,0,0,0-1.27,2.9v11.23a3.72,3.72,0,0,0,1,2.976,5,5,0,0,0,3.312.784v.822H698.69Z" fill="#032973"/>
        <path id="Path_7539" data-name="Path 7539" d="M716.271-339.735a5.7,5.7,0,0,0,2.59-.648q.994-.722,1-2.888v-12.875a4.053,4.053,0,0,0-.486-2.416,2,2,0,0,0-1.606-.573,4.56,4.56,0,0,0-.785.051,4.144,4.144,0,0,0-.609.174v-.871l1.793-.6q.97-.324,3.187-1.171t2.341-.846a.14.14,0,0,1,.15.125,3.12,3.12,0,0,1,.024.472v3.361a18.984,18.984,0,0,1,4.259-3.1,8.435,8.435,0,0,1,3.685-.859,5.144,5.144,0,0,1,4.084,1.743,7.562,7.562,0,0,1,1.32,2.565,20.687,20.687,0,0,1,3.213-2.765,8.745,8.745,0,0,1,4.831-1.543q4.008,0,5.353,3.261a16.159,16.159,0,0,1,.773,5.828v10.334a2.976,2.976,0,0,0,.784,2.4,5.526,5.526,0,0,0,2.826.834v.647H743.763v-.7a4.916,4.916,0,0,0,2.851-.871,3.937,3.937,0,0,0,.686-2.74v-10.733a9.055,9.055,0,0,0-.524-3.56,3.568,3.568,0,0,0-3.61-2.043,5.714,5.714,0,0,0-3.213,1.071,15.952,15.952,0,0,0-2.266,1.992v12.75a5.475,5.475,0,0,0,.709,3.064q.711,1.046,3,1.12v.647H729.968v-.647q2.365-.3,3.012-1.146t.648-4.183v-6.959a18.6,18.6,0,0,0-.5-5.268,3.345,3.345,0,0,0-3.487-2.441,5.984,5.984,0,0,0-2.988.835,9.4,9.4,0,0,0-2.59,2.178V-343.1a3.923,3.923,0,0,0,.66,2.616q.66.721,2.876.747v.647h-11.33Z" fill="#032973"/>
        <path id="Path_7540" data-name="Path 7540" d="M760.6-350.07a54.534,54.534,0,0,1,9.139-4.059v-2.117a8.714,8.714,0,0,0-.5-3.535q-.846-1.67-3.511-1.669a4.848,4.848,0,0,0-2.416.647,2.059,2.059,0,0,0-1.145,1.843,6.654,6.654,0,0,0,.125,1.009,7.1,7.1,0,0,1,.124.908,2.072,2.072,0,0,1-.921,1.943,2.318,2.318,0,0,1-1.245.324,2.089,2.089,0,0,1-1.719-.735,2.526,2.526,0,0,1-.6-1.632q0-1.741,2.155-3.647t6.312-1.9q4.832,0,6.55,3.137a10.855,10.855,0,0,1,.921,5.005v9.987a6.679,6.679,0,0,0,.2,1.992,1.3,1.3,0,0,0,1.345.97,2.243,2.243,0,0,0,.946-.173,9.776,9.776,0,0,0,1.3-.847v1.295a8.117,8.117,0,0,1-1.718,1.594,5.009,5.009,0,0,1-2.839.946,2.771,2.771,0,0,1-2.453-1.1,4.906,4.906,0,0,1-.834-2.615,23.341,23.341,0,0,1-3.237,2.441,8.479,8.479,0,0,1-4.309,1.344,5.175,5.175,0,0,1-3.71-1.506,5.077,5.077,0,0,1-1.569-3.822Q756.986-347.654,760.6-350.07Zm9.139-2.814a22.788,22.788,0,0,0-4.731,2.092q-3.586,2.217-3.586,5.03a3.827,3.827,0,0,0,1.494,3.337,3.627,3.627,0,0,0,2.167.7,5.951,5.951,0,0,0,3.15-.92,2.7,2.7,0,0,0,1.506-2.342Z" fill="#032973"/>
        <path id="Path_7541" data-name="Path 7541" d="M795.8-360.97q2.253,1.6,2.254,3.512a2.378,2.378,0,0,1-.574,1.526,2.135,2.135,0,0,1-1.767.707,2.213,2.213,0,0,1-1.532-.6,3.465,3.465,0,0,1-.958-1.743l-.3-1.2a3.034,3.034,0,0,0-1.121-1.868,3.992,3.992,0,0,0-2.166-.522,5.9,5.9,0,0,0-4.794,2.481,10.355,10.355,0,0,0-1.955,6.6,11.277,11.277,0,0,0,2.154,6.758,6.8,6.8,0,0,0,5.814,2.992,6.959,6.959,0,0,0,4.608-1.7,15.857,15.857,0,0,0,2.59-3.094l.7.425a19.779,19.779,0,0,1-2.988,4.736,9.152,9.152,0,0,1-6.973,3.34,9.339,9.339,0,0,1-6.873-3.063,11.4,11.4,0,0,1-2.988-8.317,12.975,12.975,0,0,1,3.261-8.865,10.5,10.5,0,0,1,8.243-3.71A9.027,9.027,0,0,1,795.8-360.97Z" fill="#032973"/>
        <path id="Path_7542" data-name="Path 7542" d="M801.089-361.973H811.6v.7a6.511,6.511,0,0,0-1.842.228q-1.146.332-1.146,1.3a2.273,2.273,0,0,0,.124.727q.125.369.448,1.107l5.764,12.463,4.745-12.563q.075-.2.238-.918a5.432,5.432,0,0,0,.161-.967,1.09,1.09,0,0,0-.449-.969,2.3,2.3,0,0,0-1.145-.357l-.772-.05v-.7h6.848v.7a2.312,2.312,0,0,0-1.531.719,5.131,5.131,0,0,0-.884,1.646l-7.845,20.768a31.76,31.76,0,0,1-3.909,7.794,5.741,5.741,0,0,1-4.731,2.416,5.186,5.186,0,0,1-2.616-.7,2.367,2.367,0,0,1-1.219-2.217,2.069,2.069,0,0,1,.725-1.631,2.688,2.688,0,0,1,1.832-.634,6.094,6.094,0,0,1,1.907.472,6.088,6.088,0,0,0,1.808.474q1.376,0,2.9-3.381a14.754,14.754,0,0,0,1.525-4.465,2.541,2.541,0,0,0-.071-.542,4.247,4.247,0,0,0-.166-.566l-7.848-16.969a8.25,8.25,0,0,0-1.481-2.429,3.421,3.421,0,0,0-1.88-.758Z" fill="#032973"/>
      </g>
      <g id="Group_8554" data-name="Group 8554" style="isolation: isolate">
        <path id="Path_7543" data-name="Path 7543" d="M831.751-340.635a1.843,1.843,0,0,1-.547,1.328,1.768,1.768,0,0,1-1.313.563,1.83,1.83,0,0,1-1.289-.539,1.678,1.678,0,0,1-.57-1.258,1.784,1.784,0,0,1,.563-1.3,1.779,1.779,0,0,1,1.3-.562,1.846,1.846,0,0,1,1.3.523A1.645,1.645,0,0,1,831.751-340.635Z" fill="#032973"/>
      </g>
      <g id="Group_8555" data-name="Group 8555" style="isolation: isolate">
        <path id="Path_7544" data-name="Path 7544" d="M845.212-352.818a2.779,2.779,0,0,1,1.414,2.2,1.494,1.494,0,0,1-.36.958,1.345,1.345,0,0,1-1.109.443,1.385,1.385,0,0,1-.961-.375,2.17,2.17,0,0,1-.6-1.094l-.188-.75a1.91,1.91,0,0,0-.7-1.172,2.508,2.508,0,0,0-1.359-.328,3.7,3.7,0,0,0-3.008,1.557,6.5,6.5,0,0,0-1.227,4.139,7.074,7.074,0,0,0,1.352,4.24,4.267,4.267,0,0,0,3.648,1.877A4.366,4.366,0,0,0,845-342.184a10,10,0,0,0,1.625-1.941l.437.266a12.345,12.345,0,0,1-1.875,2.972,5.738,5.738,0,0,1-4.375,2.1,5.861,5.861,0,0,1-4.312-1.922,7.151,7.151,0,0,1-1.875-5.219,8.136,8.136,0,0,1,2.047-5.562,6.589,6.589,0,0,1,5.172-2.328A5.671,5.671,0,0,1,845.212-352.818Z" fill="#032973"/>
        <path id="Path_7545" data-name="Path 7545" d="M850.884-351.6a6.6,6.6,0,0,1,5.086-2.148,6.954,6.954,0,0,1,5.125,2.031,7.312,7.312,0,0,1,2.031,5.406,8.043,8.043,0,0,1-1.969,5.407,6.4,6.4,0,0,1-5.094,2.3,6.712,6.712,0,0,1-5.078-2.2,7.74,7.74,0,0,1-2.078-5.531A7.478,7.478,0,0,1,850.884-351.6Zm2.5-.4q-1.566,1.422-1.566,4.906a11.015,11.015,0,0,0,1.26,5.188,3.859,3.859,0,0,0,3.5,2.406,2.973,2.973,0,0,0,2.7-1.61,8.245,8.245,0,0,0,.948-4.218,11.169,11.169,0,0,0-1.206-5.094,3.779,3.779,0,0,0-3.491-2.391A3.113,3.113,0,0,0,853.379-351.994Z" fill="#032973"/>
        <path id="Path_7546" data-name="Path 7546" d="M864.61-339.494a3.559,3.559,0,0,0,1.625-.406,2.134,2.134,0,0,0,.625-1.813v-8.078a2.54,2.54,0,0,0-.3-1.516,1.256,1.256,0,0,0-1.007-.359,2.961,2.961,0,0,0-.493.031,2.778,2.778,0,0,0-.382.11v-.547l1.125-.375q.609-.2,2-.735t1.468-.531a.088.088,0,0,1,.094.078,1.872,1.872,0,0,1,.016.3v2.109a11.951,11.951,0,0,1,2.672-1.945,5.3,5.3,0,0,1,2.312-.539,3.231,3.231,0,0,1,2.563,1.094,4.758,4.758,0,0,1,.828,1.609,13,13,0,0,1,2.015-1.734,5.487,5.487,0,0,1,3.032-.969,3.279,3.279,0,0,1,3.359,2.047,10.162,10.162,0,0,1,.484,3.656v6.485a1.862,1.862,0,0,0,.493,1.507,3.457,3.457,0,0,0,1.773.524v.406H881.86v-.437a3.082,3.082,0,0,0,1.789-.547,2.474,2.474,0,0,0,.43-1.719v-6.734a5.7,5.7,0,0,0-.328-2.235,2.242,2.242,0,0,0-2.266-1.281,3.588,3.588,0,0,0-2.015.672,10.019,10.019,0,0,0-1.422,1.25v8a3.426,3.426,0,0,0,.445,1.922,2.253,2.253,0,0,0,1.883.7v.406H873.2v-.406a2.862,2.862,0,0,0,1.891-.719,5.177,5.177,0,0,0,.406-2.625V-347.2a11.683,11.683,0,0,0-.313-3.306A2.1,2.1,0,0,0,873-352.041a3.764,3.764,0,0,0-1.875.523,5.9,5.9,0,0,0-1.625,1.368v8.546a2.455,2.455,0,0,0,.414,1.641,2.551,2.551,0,0,0,1.8.469v.406h-7.11Z" fill="#032973"/>
      </g>
    </g>
    <g id="Group_8562" data-name="Group 8562">
      <g id="Group_8560" data-name="Group 8560">
        <path id="Path_1" data-name="Path 1" d="M542.867-372.233l-8.855-8.393-8.542,8.309s-4.336,3.7-5.547,8.1c2.064.983,9.624,5.1,9.624,12.627,0,4.135.083,11.9.1,12.975h4.594c-.12-.783-1.555-10.062-2.869-15.058a42.758,42.758,0,0,0-4.338-10.03s1.239,1.2,1.328.884a2.318,2.318,0,0,1,.266-.576l.086,1.283s1.685,3.712,5.138,3.754,5.222-3.532,5.222-3.532l.043-1.326a5.017,5.017,0,0,1,.356.4c.175.22,1.237-.8,1.237-.8s-1.9,2.831-3.54,9.591c-1.563,6.455-2.8,14.675-2.911,15.41H538.7c.011-1.079.094-8.84.094-12.975,0-7.682,7.876-11.815,9.743-12.686C547.582-367.878,542.867-372.233,542.867-372.233ZM534-359.644c-.621,0-1.126-.733-1.126-1.634s.5-1.639,1.126-1.639,1.132.735,1.132,1.639-.507,1.634-1.132,1.634Z" transform="translate(-1482.768 3258.626)" fill="#032973"/>
        <path id="Path_2" data-name="Path 2" d="M539.751-338.618h8.969v-23.675c-1.611.715-8.969,4.44-8.969,12.868Z" transform="translate(-1482.768 3258.626)" fill="#032973"/>
        <path id="Path_3" data-name="Path 3" d="M519.606-362.048v23.431h8.986v-10.808c0-8.428-7.357-12.155-8.968-12.868C519.622-362.211,519.606-362.13,519.606-362.048Z" transform="translate(-1482.768 3258.626)" fill="#032973"/>
      </g>
      <g id="Group_8561" data-name="Group 8561">
        <path id="Path_4" data-name="Path 4" d="M527.294-331.334l-.326,3.025h-7.7v-.236h.289a1.2,1.2,0,0,0,.608-.133.58.58,0,0,0,.256-.3,2.6,2.6,0,0,0,.07-.8v-5.669a2.8,2.8,0,0,0-.07-.826.638.638,0,0,0-.285-.289,1.15,1.15,0,0,0-.579-.124h-.289v-.236h4.625v.236h-.377a1.2,1.2,0,0,0-.608.133.608.608,0,0,0-.263.305,2.624,2.624,0,0,0-.07.8v5.491a2.745,2.745,0,0,0,.077.842.506.506,0,0,0,.3.27,3.048,3.048,0,0,0,.774.057h.723a2.454,2.454,0,0,0,1.152-.242,2.134,2.134,0,0,0,.8-.761,6.121,6.121,0,0,0,.636-1.538Z" transform="translate(-1482.768 3258.626)" fill="#a92579"/>
        <path id="Path_5" data-name="Path 5" d="M532.558-328.544v.236h-4.535v-.236h.289a1.194,1.194,0,0,0,.607-.133.578.578,0,0,0,.256-.3,2.594,2.594,0,0,0,.07-.8v-5.669a2.8,2.8,0,0,0-.07-.826.638.638,0,0,0-.285-.289,1.153,1.153,0,0,0-.577-.124h-.289v-.236h4.534v.236h-.289a1.2,1.2,0,0,0-.608.133.611.611,0,0,0-.262.3,2.594,2.594,0,0,0-.07.8v5.67a2.7,2.7,0,0,0,.073.826.652.652,0,0,0,.289.289,1.159,1.159,0,0,0,.578.124Z" transform="translate(-1482.768 3258.626)" fill="#a92579"/>
        <path id="Path_6" data-name="Path 6" d="M536.461-336.431v3.54h.249a2.212,2.212,0,0,0,.94-.172,1.47,1.47,0,0,0,.617-.578,2.634,2.634,0,0,0,.329-1.1h.224v4.327H538.6a2.2,2.2,0,0,0-.662-1.617,2.039,2.039,0,0,0-1.225-.391h-.249v2.638a2.7,2.7,0,0,0,.073.826.651.651,0,0,0,.289.289,1.153,1.153,0,0,0,.577.124h.289v.236h-4.535v-.236h.289a1.2,1.2,0,0,0,.608-.133.575.575,0,0,0,.256-.3,2.6,2.6,0,0,0,.07-.8v-5.67a2.8,2.8,0,0,0-.07-.826.638.638,0,0,0-.285-.289,1.153,1.153,0,0,0-.577-.124h-.289v-.236h7.318v2.473h-.263a2.288,2.288,0,0,0-.457-1.29,2,2,0,0,0-1.065-.591,6.962,6.962,0,0,0-1.42-.1Z" transform="translate(-1482.768 3258.626)" fill="#a92579"/>
        <path id="Path_7" data-name="Path 7" d="M544.43-336.431v3.51h.173a1.376,1.376,0,0,0,1.2-.515,3.151,3.151,0,0,0,.472-1.519h.243v4.512h-.246a3.365,3.365,0,0,0-.323-1.208,1.383,1.383,0,0,0-.573-.632,2.178,2.178,0,0,0-.947-.162v2.424a3.487,3.487,0,0,0,.061.871.52.52,0,0,0,.227.26,1.068,1.068,0,0,0,.537.1h.518a2.793,2.793,0,0,0,3-2.262h.236l-.39,2.739h-7.5v-.236h.289a1.2,1.2,0,0,0,.608-.133.578.578,0,0,0,.256-.3,2.593,2.593,0,0,0,.07-.8v-5.668a4.537,4.537,0,0,0-.032-.718.608.608,0,0,0-.236-.343,1.1,1.1,0,0,0-.665-.178h-.289v-.236h7.26v2.548h-.243a3.089,3.089,0,0,0-.521-1.341,1.944,1.944,0,0,0-.95-.6,5.178,5.178,0,0,0-1.343-.114Z" transform="translate(-1482.768 3258.626)" fill="#a92579"/>
      </g>
    </g>
  </g>
</svg>
